<?xml version="1.0" encoding="UTF-8"?>
<svg id="Layer_1" data-name="Layer 1" xmlns="http://www.w3.org/2000/svg" version="1.1" viewBox="0 0 358.89 122.67">
  <defs>
    <style>
      .cls-1 {
        fill: #08da78;
      }

      .cls-1, .cls-2 {
        stroke-width: 0px;
      }

      .cls-2 {
        fill: #fff;
      }
    </style>
  </defs>
  <g>
    <path class="cls-2" d="M138.04,47.3c0,.62-.17,1.16-.51,1.63-.34.47-.74.84-1.19,1.09-.81-.55-1.75-1.05-2.82-1.51-1.07-.45-2.38-.68-3.94-.68-1.82,0-3.41.4-4.79,1.19-1.38.8-2.45,1.98-3.21,3.55-.76,1.57-1.14,3.49-1.14,5.76,0,3.44.86,6.04,2.58,7.81,1.72,1.77,4,2.65,6.86,2.65,1.52,0,2.84-.21,3.94-.63,1.1-.42,2.06-.91,2.87-1.46.42.26.79.64,1.09,1.14.31.5.46,1.06.46,1.68,0,.55-.14,1.05-.41,1.51-.28.45-.75.86-1.43,1.22-.68.39-1.61.75-2.8,1.07-1.18.32-2.67.49-4.45.49-2.79,0-5.33-.56-7.61-1.68s-4.09-2.82-5.42-5.11c-1.33-2.29-1.99-5.18-1.99-8.68s.66-6.26,1.99-8.56c1.33-2.3,3.11-4.04,5.35-5.23,2.24-1.18,4.69-1.78,7.34-1.78,1.88,0,3.51.21,4.89.63,1.38.42,2.45.97,3.21,1.65.76.68,1.14,1.43,1.14,2.24Z"/>
    <path class="cls-2" d="M148.94,55.57v6.66h-5.98v-7.15c0-.81.19-1.5.58-2.07.39-.57.94-1.09,1.65-1.58.97-.58,2.2-1.07,3.7-1.46,1.49-.39,3.1-.58,4.81-.58,3.05,0,4.57.94,4.57,2.82,0,.45-.07.87-.19,1.24-.13.37-.29.71-.49,1-.32-.06-.73-.12-1.22-.17-.49-.05-1.01-.07-1.56-.07-1.17,0-2.26.12-3.28.36-1.02.24-1.89.58-2.6,1ZM142.96,60.24l5.98.29v12.45c-.26.1-.63.19-1.12.27-.49.08-1.02.12-1.6.12-1.1,0-1.92-.2-2.46-.61-.54-.4-.8-1.13-.8-2.16v-10.36Z"/>
    <path class="cls-2" d="M164.16,64.62l-.24-4.18,13.03-1.95c-.1-1.23-.57-2.3-1.41-3.21-.84-.91-2.08-1.36-3.7-1.36s-3.03.58-4.13,1.73c-1.1,1.15-1.67,2.8-1.7,4.94l.15,2.53c.29,2.08,1.09,3.6,2.41,4.57,1.31.97,2.97,1.46,4.99,1.46,1.36,0,2.63-.2,3.79-.61,1.17-.4,2.09-.85,2.77-1.34.45.29.82.66,1.09,1.09.28.44.41.92.41,1.43,0,.84-.37,1.56-1.12,2.16-.75.6-1.75,1.06-3.02,1.39-1.26.32-2.71.49-4.33.49-2.5,0-4.71-.46-6.64-1.39-1.93-.92-3.44-2.31-4.52-4.16-1.09-1.85-1.63-4.15-1.63-6.91,0-1.98.31-3.71.92-5.2.62-1.49,1.45-2.73,2.5-3.72,1.05-.99,2.28-1.73,3.67-2.24,1.39-.5,2.85-.75,4.38-.75,2.14,0,4.01.43,5.62,1.29,1.6.86,2.87,2.05,3.79,3.57.92,1.52,1.39,3.28,1.39,5.25,0,.91-.24,1.58-.71,2.02-.47.44-1.13.71-1.97.8l-15.81,2.29Z"/>
    <path class="cls-2" d="M202.68,68.02v-15.27h5.98v15.9c0,.71-.15,1.31-.46,1.78-.31.47-.8.92-1.48,1.34-.78.52-1.84.98-3.19,1.39-1.35.4-2.88.61-4.6.61-2.56,0-4.79-.43-6.69-1.29-1.9-.86-3.36-2.19-4.4-3.99-1.04-1.8-1.56-4.08-1.56-6.83s.53-5.14,1.58-6.95c1.05-1.82,2.47-3.15,4.26-4.01,1.78-.86,3.76-1.29,5.93-1.29,1.2,0,2.29.15,3.28.44.99.29,1.79.63,2.41,1.02v5.11c-.52-.49-1.2-.91-2.04-1.26-.84-.36-1.82-.53-2.92-.53-1.2,0-2.29.25-3.26.75-.97.5-1.73,1.31-2.29,2.43-.55,1.12-.83,2.57-.83,4.35,0,2.53.58,4.38,1.75,5.54s2.74,1.75,4.72,1.75c.88,0,1.62-.1,2.24-.29.62-.19,1.13-.42,1.56-.68ZM208.66,53.96l-5.98.05v-12.55c.23-.06.59-.15,1.09-.24.5-.1,1.03-.15,1.58-.15,1.17,0,2.01.2,2.53.61.52.41.78,1.13.78,2.16v10.12Z"/>
    <path class="cls-2" d="M214.69,43.22c0-.94.33-1.73,1-2.38.66-.65,1.5-.97,2.5-.97s1.87.32,2.5.97c.63.65.95,1.44.95,2.38s-.32,1.69-.95,2.36c-.63.67-1.47,1-2.5,1s-1.84-.33-2.5-1c-.67-.66-1-1.45-1-2.36ZM221.21,63.3h-6.03v-13.03c.26-.1.64-.19,1.14-.27.5-.08,1.05-.12,1.63-.12,1.13,0,1.96.2,2.48.61.52.41.78,1.14.78,2.21v10.6ZM215.18,60.24h6.03v12.74c-.26.1-.63.19-1.12.27-.49.08-1.02.12-1.61.12-1.1,0-1.93-.2-2.48-.61-.55-.4-.83-1.13-.83-2.16v-10.36Z"/>
    <path class="cls-1" d="M236.48,49.39c3.18,0,5.71.67,7.59,2.02,1.88,1.35,2.82,3.46,2.82,6.35v11.19c0,.78-.19,1.39-.56,1.85-.37.45-.85.86-1.43,1.22-.91.52-2.06.95-3.45,1.29-1.39.34-2.97.51-4.72.51-3.24,0-5.79-.62-7.64-1.87-1.85-1.25-2.77-3.1-2.77-5.57,0-2.17.69-3.83,2.07-4.99,1.38-1.15,3.38-1.86,6.01-2.12l6.61-.68v-.88c0-1.3-.45-2.24-1.34-2.82-.89-.58-2.15-.88-3.77-.88-1.26,0-2.5.16-3.7.49-1.2.32-2.27.71-3.21,1.17-.32-.26-.62-.62-.88-1.07-.26-.45-.39-.92-.39-1.41,0-1.17.65-2.03,1.95-2.58.91-.42,1.97-.73,3.19-.92,1.22-.19,2.42-.29,3.62-.29ZM236.73,69.24c.97,0,1.85-.1,2.63-.29.78-.19,1.35-.41,1.7-.63v-5.54l-4.81.49c-1.33.1-2.34.38-3.04.85-.7.47-1.05,1.16-1.05,2.07s.37,1.69,1.12,2.24c.75.55,1.9.83,3.45.83Z"/>
    <path class="cls-1" d="M262.55,72.25c-1.91,0-3.68-.36-5.3-1.09-1.62-.73-2.92-1.94-3.89-3.62-.97-1.69-1.46-3.91-1.46-6.66,0-2.53.49-4.64,1.48-6.35.99-1.7,2.38-2.98,4.18-3.84,1.8-.86,3.87-1.29,6.2-1.29,1.65,0,3.19.21,4.6.63,1.41.42,2.54.91,3.38,1.46.55.36,1,.79,1.34,1.29.34.5.51,1.11.51,1.82v15.17h-5.84v-14.64c-.42-.26-.94-.49-1.56-.68-.62-.19-1.38-.29-2.29-.29-1.78,0-3.23.55-4.35,1.65-1.12,1.1-1.68,2.79-1.68,5.06,0,2.5.54,4.25,1.63,5.25,1.09,1.01,2.42,1.51,4.01,1.51,1.23,0,2.23-.21,2.99-.63.76-.42,1.4-.88,1.92-1.36l.19,4.86c-.58.45-1.39.86-2.41,1.22-1.02.36-2.25.53-3.67.53ZM267.85,73.22v-4.77h5.74v4.96c0,2.2-.5,4-1.51,5.37-1.01,1.38-2.38,2.39-4.11,3.04-1.73.65-3.67.97-5.81.97-1.69,0-3.15-.16-4.4-.49-1.25-.32-2.16-.66-2.75-1.02-1.07-.65-1.6-1.54-1.6-2.68,0-.58.13-1.1.39-1.56.26-.45.57-.79.92-1.02.81.52,1.82.97,3.04,1.36,1.22.39,2.5.58,3.87.58,1.95,0,3.47-.38,4.57-1.14,1.1-.76,1.65-1.97,1.65-3.62Z"/>
    <path class="cls-1" d="M285.75,55.57v6.66h-5.98v-7.15c0-.81.19-1.5.58-2.07.39-.57.94-1.09,1.65-1.58.97-.58,2.2-1.07,3.7-1.46,1.49-.39,3.1-.58,4.81-.58,3.05,0,4.57.94,4.57,2.82,0,.45-.07.87-.19,1.24-.13.37-.29.71-.49,1-.32-.06-.73-.12-1.22-.17-.49-.05-1.01-.07-1.56-.07-1.17,0-2.26.12-3.28.36-1.02.24-1.89.58-2.6,1ZM279.77,60.24l5.98.29v12.45c-.26.1-.63.19-1.12.27-.49.08-1.02.12-1.6.12-1.1,0-1.92-.2-2.46-.61-.54-.4-.8-1.13-.8-2.16v-10.36Z"/>
    <path class="cls-1" d="M320.91,61.55c0,2.5-.49,4.66-1.46,6.49-.97,1.83-2.34,3.24-4.11,4.23-1.77.99-3.85,1.48-6.25,1.48s-4.49-.49-6.27-1.48c-1.78-.99-3.17-2.39-4.16-4.21-.99-1.82-1.48-3.99-1.48-6.52s.5-4.65,1.51-6.47c1-1.82,2.4-3.22,4.18-4.21,1.78-.99,3.86-1.48,6.23-1.48s4.43.49,6.2,1.48c1.77.99,3.14,2.4,4.13,4.23.99,1.83,1.48,3.98,1.48,6.44ZM309.1,54.16c-1.78,0-3.19.65-4.21,1.95-1.02,1.3-1.53,3.11-1.53,5.45s.5,4.24,1.51,5.52c1,1.28,2.42,1.92,4.23,1.92s3.18-.65,4.18-1.95c1-1.3,1.51-3.13,1.51-5.5s-.5-4.11-1.51-5.42c-1.01-1.31-2.4-1.97-4.18-1.97Z"/>
  </g>
  <g>
    <path class="cls-2" d="M93.62,77.28c.87-2.66-2.52-4.53-4.37-2.43-.01.01-.02.02-.03.04-3.3,3.4-8.24,5.03-15.26,5.03-12.68,0-20.22-6.49-20.22-15.93,0-10.2,8.1-15.29,23.49-14.83,2.25.07,4.29-2.23,3.24-5.61-1.39-4.45-9.2-8.29-22.81-4.87-12.13,3.91-20.79,15.54-20.17,29.1.68,14.82,12.65,26.91,27.47,27.73,12.77.7,23.87-6.82,28.49-17.75.06-.15.12-.31.18-.49Z"/>
    <path class="cls-1" d="M71.86,30.71c9.71,0,16.22,3.73,19.74,10.13.43.78.81,1.6,1.15,2.45,0-.05-.13-2.34-.24-2.98-1.34-7.51-7.9-13.21-15.79-13.21-1.9,0-3.72.33-5.4.94-1.46.52-1.07,2.67.48,2.67.02,0,.04,0,.06,0Z"/>
    <path class="cls-1" d="M70.16,60.1c2.73-2.02,13.35-.25,17.77-4.09-1.23,7.12-4.75,11.79-8.52,13.27-3.16,1.24-7.94.98-9.74-.79-2.41-2.39-2.06-6.49.48-8.38Z"/>
  </g>
</svg>